<svg width="86" height="20" viewBox="0 0 86 20" fill="none" xmlns="http://www.w3.org/2000/svg">
<path fill-rule="evenodd" clip-rule="evenodd" d="M76.9217 3.96583C76.9368 3.46977 77.0692 3.78732 76.2553 3.76672C74.7709 3.7293 66.5199 3.6322 66.1412 3.29532C64.5024 1.83753 64.6596 1.48144 63.4884 0.439528L70.5705 0.582039C73.48 0.721711 80.5879 0.785353 82.8823 2.82643L85.7814 5.40541C85.063 6.21291 84.1995 6.82372 83.4127 7.49726C80.1209 10.3163 74.5715 14.3337 70.9556 16.4043C70.0063 16.9482 69.3455 17.2885 68.416 17.7995C67.5014 18.3017 66.6954 18.5819 65.8742 19.1619C64.922 18.3148 64.266 17.8085 63.6506 16.9358C64.0801 16.3636 63.909 16.3672 64.4967 15.7067C65.0997 16.135 65.0858 16.0179 65.7942 15.4899C66.3086 15.1066 66.5634 14.8909 67.0507 14.5574L72.2092 10.8612C72.9961 10.265 74.2154 9.47841 74.8419 8.80557C74.1491 8.89506 67.9314 10.8177 65.8127 11.2483L49.9962 14.1309C49.5417 14.1975 49.2772 14.1579 48.8226 14.2244C48.2983 14.3014 48.2232 14.3744 47.6548 14.4182L33.969 15.6173C31.4606 15.766 30.8673 15.9065 28.3482 15.8311L22.5882 15.8997C19.3445 15.9736 14.131 15.4266 10.9994 14.8408C8.72935 14.4167 3.05942 13.0826 1.24242 11.4662C0.548624 10.849 0.73524 10.7921 0.123092 10.2225L2.52352 10.957C3.38177 11.2026 4.0735 11.4065 4.91583 11.5612C9.27299 12.3614 10.0386 12.3902 14.6728 12.6556C16.3588 12.7521 17.846 12.651 19.5257 12.7605L25.4182 12.7151C25.9611 12.704 26.0749 12.7749 26.6007 12.777C29.4658 12.7892 40.5877 11.9232 43.4266 11.5077C45.1058 11.2616 46.5458 11.0628 48.2304 10.7585C57.678 9.05115 66.4133 7.00151 75.6281 4.25222C75.8179 4.1957 76.0806 4.12385 76.2734 4.08067L76.9217 3.96583Z" fill="#ED60A9" fill-opacity="0.33"/>
</svg>
