<svg width="22" height="18" viewBox="0 0 22 18" fill="none" xmlns="http://www.w3.org/2000/svg">
<path d="M20.8929 17.73H0.372696C0.166617 17.73 0 17.5179 0 17.2556V0.474363C0 0.212068 0.166617 0 0.372696 0H20.8973C21.1034 0 21.27 0.212068 21.27 0.474363V17.2612C21.2656 17.5179 21.099 17.73 20.8929 17.73Z" fill="#195BDA"/>
<path d="M15.4404 6.73856H21.07V11.0026H15.436H14.8837L15.3079 11.3562L21.0656 16.1555V17.2669C21.0656 17.4606 20.9507 17.53 20.9015 17.53H19.3334L12.5944 11.9137L12.2664 11.6403V12.0673V17.5188H8.99926V12.0562V11.6291L8.67122 11.9025L1.9322 17.5188H0.364077C0.314893 17.5188 0.2 17.4494 0.2 17.2558V16.1444L5.95768 11.3451L6.38192 10.9914H5.82962H0.2V6.72741H5.82962H6.38192L5.95768 6.37378L0.2 1.57446V0.463055C0.2 0.269399 0.314893 0.2 0.364077 0.2H1.93224L8.67565 5.81634L9.00365 6.08952V5.66266V0.2H12.2707V5.66266V6.08969L12.5988 5.8163L19.3378 0.2H20.9059C20.9551 0.2 21.07 0.269399 21.07 0.463055V1.5801L15.3122 6.38501L14.8886 6.73856H15.4404Z" fill="#D52B1E" stroke="white" stroke-width="0.4"/>
</svg>
