<svg width="27" height="27" viewBox="0 0 27 27" fill="none" xmlns="http://www.w3.org/2000/svg">
<path d="M0 13.218C0 13.7311 0.415932 14.1471 0.929094 14.1471H18.6251L15.1734 17.5934C14.8115 17.9553 14.8115 18.5441 15.1734 18.906C15.3517 19.0842 15.5893 19.1761 15.827 19.1761C16.0647 19.1761 16.3024 19.0842 16.4806 18.906L21.5096 13.877C21.8715 13.5151 21.8715 12.9263 21.5096 12.5644L16.4806 7.53537C16.1187 7.17345 15.5299 7.17345 15.168 7.53537C14.8061 7.89728 14.8061 8.48607 15.168 8.84798L18.6143 12.2943H0.929094C0.415932 12.2943 0 12.7048 0 13.218Z" fill="white"/>
<path d="M21.4123 26.4306C24.475 26.4306 26.9598 23.9404 26.9598 20.8776V5.55296C26.9598 2.49019 24.4696 0 21.4123 0H6.0876C3.02483 0 0.540039 2.49019 0.540039 5.55296V8.70216C0.540039 9.21532 0.955971 9.62585 1.46373 9.62585C1.97689 9.62585 2.39283 9.20992 2.39283 8.70216V5.55296C2.39283 3.51651 4.05115 1.85279 6.0876 1.85279H21.4123C23.4487 1.85279 25.107 3.51111 25.107 5.55296V20.8776C25.107 22.9141 23.4487 24.5778 21.4123 24.5778H6.0876C4.05115 24.5778 2.39283 22.9195 2.39283 20.8776V17.7662C2.39283 17.2531 1.97689 16.8371 1.46373 16.8371C0.950569 16.8371 0.540039 17.2531 0.540039 17.7662V20.8776C0.540039 23.9404 3.03023 26.4306 6.0876 26.4306H21.4123Z" fill="white"/>
</svg>
