<svg width="22" height="14" viewBox="0 0 22 14" fill="none" xmlns="http://www.w3.org/2000/svg">
<path d="M21.8184 6.4409C21.6228 6.17789 16.9609 0 11 0C5.03907 0 0.377155 6.17789 0.18159 6.4409C-0.0605301 6.7665 -0.0605301 7.21235 0.18159 7.53794C0.377155 7.80095 5.03907 13.9788 11 13.9788C16.9609 13.9788 21.6228 7.80095 21.8184 7.53794C22.0605 7.21242 22.0605 6.7665 21.8184 6.4409ZM11 10.6708C8.97007 10.6708 7.31862 9.01935 7.31862 6.98942C7.31862 4.95942 8.97007 3.30797 11 3.30797C13.03 3.30797 14.6814 4.95942 14.6814 6.98942C14.6814 9.01935 13.0299 10.6708 11 10.6708Z" fill="#CFB6D1"/>
<path d="M10.9997 8.55322C11.8634 8.55322 12.5634 7.85313 12.5634 6.98952C12.5634 6.12591 11.8634 5.42581 10.9997 5.42581C10.1361 5.42581 9.43604 6.12591 9.43604 6.98952C9.43604 7.85313 10.1361 8.55322 10.9997 8.55322Z" fill="#CFB6D1"/>
</svg>
