<svg width="59" height="58" viewBox="0 0 59 58" fill="none" xmlns="http://www.w3.org/2000/svg">
<path fill-rule="evenodd" clip-rule="evenodd" d="M29.1487 0.520004L38.2748 19.1014L58.1199 22.3686L43.9148 37.119L47.0544 57.72L29.1487 48.2548L11.2431 57.72L13.8925 40.3343C16.2781 40.5806 18.4461 40.7959 20.8311 40.7959C21.608 40.7959 22.2376 40.1698 22.2376 39.3966V31.5998C22.2376 30.8266 22.0014 30.456 21.1735 30.2454C15.3383 29.3555 12.2702 28.8694 5.54793 27.9456L0.177002 22.3686L20.0221 19.1014L29.1487 0.520004ZM36.686 33.2273C36.686 32.7155 36.4309 32.237 36.0065 31.9499C36.336 31.5234 36.5488 31.018 36.6209 30.4846C36.6209 29.0474 35.266 28.6179 33.1794 28.6179C31.9394 28.6313 30.7035 28.7772 29.4946 29.052C29.6078 28.4358 30.4327 26.649 30.4327 26.0514C30.4327 24.8102 30.1372 23.2515 28.9934 22.6587C28.6838 22.4818 28.3338 22.3885 27.9762 22.3885C27.9656 22.3885 27.9539 22.3885 27.9427 22.3885C27.486 22.3669 27.0381 22.5244 26.6957 22.8273C26.6095 22.9849 26.5632 23.1623 26.5632 23.3426C26.5632 23.3788 26.5656 23.4161 26.5691 23.4529L26.776 25.7859C26.776 27.6515 23.8927 29.9851 23.8927 32.6683V38.2954C23.8927 39.2939 25.2382 40.0035 27.1741 40.0035H32.5415C33.9486 40.0035 34.2623 39.7613 34.6234 39.1077C34.7424 38.9081 34.8058 38.6812 34.8058 38.4495C34.8058 38.1991 34.7319 37.9541 34.5953 37.7451C35.266 37.496 35.7637 36.9247 35.9174 36.2285C36.0006 35.8188 35.9373 35.3934 35.7391 35.0246C36.3131 34.762 36.6819 34.1908 36.6819 33.5611C36.6819 33.5185 36.6801 33.4759 36.6766 33.4333L36.686 33.2273Z" fill="white"/>
</svg>
