<svg width="28" height="28" viewBox="0 0 28 28" fill="none" xmlns="http://www.w3.org/2000/svg">
<mask id="path-1-outside-1_21_258" maskUnits="userSpaceOnUse" x="0" y="0" width="28" height="28" fill="black">
<rect fill="white" width="28" height="28"/>
<path d="M14.215 27.43C17.7446 27.43 21.0633 26.0552 23.5588 23.5592C26.0552 21.0633 27.43 17.7446 27.43 14.215C27.43 10.6854 26.0552 7.36674 23.5592 4.87117C21.0633 2.37477 17.7446 1 14.215 1C10.6854 1 7.36674 2.37477 4.87117 4.87076C2.37477 7.36674 1 10.6854 1 14.215C1 17.7446 2.37477 21.0633 4.87076 23.5588C7.36674 26.0552 10.6854 27.43 14.215 27.43ZM6.03904 6.03904C8.22282 3.85485 11.1264 2.65188 14.215 2.65188C17.3036 2.65188 20.2072 3.85485 22.391 6.03904C24.5751 8.22282 25.7781 11.1264 25.7781 14.215C25.7781 17.3036 24.5751 20.2072 22.391 22.391C20.2072 24.5751 17.3036 25.7781 14.215 25.7781C11.1264 25.7781 8.22282 24.5751 6.03904 22.391C3.85485 20.2072 2.65188 17.3036 2.65188 14.215C2.65188 11.1264 3.85485 8.22282 6.03904 6.03904Z"/>
</mask>
<path d="M14.215 27.43C17.7446 27.43 21.0633 26.0552 23.5588 23.5592C26.0552 21.0633 27.43 17.7446 27.43 14.215C27.43 10.6854 26.0552 7.36674 23.5592 4.87117C21.0633 2.37477 17.7446 1 14.215 1C10.6854 1 7.36674 2.37477 4.87117 4.87076C2.37477 7.36674 1 10.6854 1 14.215C1 17.7446 2.37477 21.0633 4.87076 23.5588C7.36674 26.0552 10.6854 27.43 14.215 27.43ZM6.03904 6.03904C8.22282 3.85485 11.1264 2.65188 14.215 2.65188C17.3036 2.65188 20.2072 3.85485 22.391 6.03904C24.5751 8.22282 25.7781 11.1264 25.7781 14.215C25.7781 17.3036 24.5751 20.2072 22.391 22.391C20.2072 24.5751 17.3036 25.7781 14.215 25.7781C11.1264 25.7781 8.22282 24.5751 6.03904 22.391C3.85485 20.2072 2.65188 17.3036 2.65188 14.215C2.65188 11.1264 3.85485 8.22282 6.03904 6.03904Z" fill="white"/>
<path d="M14.215 27.43C17.7446 27.43 21.0633 26.0552 23.5588 23.5592C26.0552 21.0633 27.43 17.7446 27.43 14.215C27.43 10.6854 26.0552 7.36674 23.5592 4.87117C21.0633 2.37477 17.7446 1 14.215 1C10.6854 1 7.36674 2.37477 4.87117 4.87076C2.37477 7.36674 1 10.6854 1 14.215C1 17.7446 2.37477 21.0633 4.87076 23.5588C7.36674 26.0552 10.6854 27.43 14.215 27.43ZM6.03904 6.03904C8.22282 3.85485 11.1264 2.65188 14.215 2.65188C17.3036 2.65188 20.2072 3.85485 22.391 6.03904C24.5751 8.22282 25.7781 11.1264 25.7781 14.215C25.7781 17.3036 24.5751 20.2072 22.391 22.391C20.2072 24.5751 17.3036 25.7781 14.215 25.7781C11.1264 25.7781 8.22282 24.5751 6.03904 22.391C3.85485 20.2072 2.65188 17.3036 2.65188 14.215C2.65188 11.1264 3.85485 8.22282 6.03904 6.03904Z" stroke="white" stroke-width="0.4" mask="url(#path-1-outside-1_21_258)"/>
<mask id="path-2-outside-2_21_258" maskUnits="userSpaceOnUse" x="4.54272" y="7.43338" width="18" height="14" fill="black">
<rect fill="white" x="4.54272" y="7.43338" width="18" height="14"/>
<path d="M10.8853 20.8225C10.894 20.8225 10.9026 20.8225 10.9113 20.8225C11.1355 20.8225 11.3507 20.7312 11.5068 20.5689L21.831 9.83176C22.1469 9.50303 22.137 8.98021 21.8079 8.66388C21.4788 8.34755 20.9563 8.35828 20.64 8.68701L10.9505 18.7643L6.99925 14.0944C6.70439 13.7459 6.18322 13.7025 5.83509 13.9974C5.48695 14.2918 5.44359 14.8134 5.73804 15.1615L10.2807 20.5301C10.4318 20.7089 10.6515 20.8225 10.8853 20.8225Z"/>
</mask>
<path d="M10.8853 20.8225C10.894 20.8225 10.9026 20.8225 10.9113 20.8225C11.1355 20.8225 11.3507 20.7312 11.5068 20.5689L21.831 9.83176C22.1469 9.50303 22.137 8.98021 21.8079 8.66388C21.4788 8.34755 20.9563 8.35828 20.64 8.68701L10.9505 18.7643L6.99925 14.0944C6.70439 13.7459 6.18322 13.7025 5.83509 13.9974C5.48695 14.2918 5.44359 14.8134 5.73804 15.1615L10.2807 20.5301C10.4318 20.7089 10.6515 20.8225 10.8853 20.8225Z" fill="white"/>
<path d="M10.8853 20.8225C10.894 20.8225 10.9026 20.8225 10.9113 20.8225C11.1355 20.8225 11.3507 20.7312 11.5068 20.5689L21.831 9.83176C22.1469 9.50303 22.137 8.98021 21.8079 8.66388C21.4788 8.34755 20.9563 8.35828 20.64 8.68701L10.9505 18.7643L6.99925 14.0944C6.70439 13.7459 6.18322 13.7025 5.83509 13.9974C5.48695 14.2918 5.44359 14.8134 5.73804 15.1615L10.2807 20.5301C10.4318 20.7089 10.6515 20.8225 10.8853 20.8225Z" stroke="white" stroke-width="0.4" mask="url(#path-2-outside-2_21_258)"/>
</svg>
